<?xml version="1.0" standalone="no"?>
<!DOCTYPE svg PUBLIC "-//W3C//DTD SVG 20010904//EN"
 "http://www.w3.org/TR/2001/REC-SVG-20010904/DTD/svg10.dtd">
<svg version="1.0" xmlns="http://www.w3.org/2000/svg"
 width="180.000000pt" height="150.000000pt" viewBox="0 0 180.000000 150.000000"
 preserveAspectRatio="xMidYMid meet">
<metadata>
Created by potrace 1.15, written by Peter Selinger 2001-2017
</metadata>
<g transform="translate(0.000000,150.000000) scale(0.100000,-0.100000)"
fill="#000000" stroke="none">
<path d="M0 750 l0 -750 900 0 900 0 0 750 0 750 -900 0 -900 0 0 -750z m980
415 c63 -33 94 -113 67 -177 -14 -32 -14 -38 -1 -49 20 -16 14 -53 -9 -57 -22
-4 -77 44 -77 67 0 9 7 25 15 35 25 33 19 91 -11 115 -50 39 -77 29 -175 -65
-49 -47 -94 -84 -101 -82 -6 2 -16 12 -22 21 -9 14 1 29 54 83 97 99 135 124
187 124 24 0 57 -7 73 -15z m-64 -247 c83 -78 84 -83 32 -135 -31 -30 -49 -42
-61 -37 -23 9 -21 47 3 69 20 18 20 18 -6 46 l-27 28 -25 -19 c-30 -24 -45
-25 -62 -5 -11 14 -7 23 30 60 24 25 48 45 53 45 4 0 33 -24 63 -52z m-582
-259 c42 -44 12 -109 -50 -109 -31 0 -34 -3 -34 -30 0 -23 -4 -30 -20 -30 -19
0 -20 7 -20 96 l0 96 56 -4 c30 -3 61 -11 68 -19z m824 -1 c3 -15 -4 -18 -47
-18 -44 0 -51 -3 -51 -20 0 -17 7 -20 45 -20 32 0 45 -4 45 -14 0 -17 -22 -26
-61 -26 -19 0 -29 -5 -29 -14 0 -11 14 -16 47 -18 36 -2 49 -7 51 -20 3 -16
-5 -18 -66 -18 -81 0 -79 -4 -74 113 l4 78 66 -3 c54 -2 67 -6 70 -20z m-523
-51 c8 -12 15 -43 15 -68 l0 -47 -52 0 c-58 -1 -78 10 -78 42 0 31 19 46 58
46 21 0 31 4 26 11 -4 6 -20 8 -40 4 -29 -5 -34 -3 -34 14 0 36 80 34 105 -2z
m258 21 c9 1 29 2 44 3 37 2 53 -25 53 -88 0 -46 -3 -53 -19 -53 -17 0 -20 8
-23 53 -3 44 -6 52 -23 52 -17 0 -20 -8 -23 -52 -3 -44 -6 -53 -22 -53 -16 0
-19 9 -22 53 -3 44 -6 52 -23 52 -17 0 -20 -8 -23 -52 -3 -45 -6 -53 -23 -53
-17 0 -19 7 -19 71 0 70 0 71 24 67 14 -3 31 -1 38 3 7 5 20 6 28 2 8 -3 23
-5 33 -5z"/>
</g>
</svg>
